/* XPM */ 
static char * lig_hlt_1_xpm[] = {
"24 24 260 2",
"  	c None",
"! 	c black",
"# 	c #FB0202",
"$ 	c #E71C1C",
"% 	c #2F2F2F",
"& 	c #B9B9B9",
"' 	c #3B3B3B",
"( 	c #ACAAAA",
") 	c #4A4A4A",
"* 	c #999999",
"+ 	c #5D5D5D",
", 	c #858585",
"- 	c #717171",
". 	c #4B4B4B",
"0 	c #A8A8AA",
"1 	c #A9ABAB",
"2 	c #D72A2A",
"3 	c #EA1616",
"4 	c #C6B2B2",
"5 	c #1C1C1C",
"6 	c #7F7E7E",
"7 	c #374141",
"8 	c #5A7878",
"9 	c #494949",
": 	c #6F7070",
"; 	c #525454",
"< 	c #666666",
"= 	c #5C5C5C",
"> 	c #525252",
"? 	c #707070",
"@ 	c #3A3A3D",
"A 	c #6E6E51",
"B 	c #D8D8D0",
"C 	c #D62424",
"D 	c #2A2A2A",
"E 	c #FEFDFD",
"F 	c #BEFFFF",
"G 	c #3CFFFF",
"H 	c #FEFFFF",
"I 	c #FEEDED",
"J 	c #FEDCDC",
"K 	c white",
"L 	c #ECECF1",
"M 	c #ACAC90",
"N 	c #E3E317",
"O 	c #9F9F4C",
"P 	c #7D7D7B",
"Q 	c #8B8A8A",
"R 	c #2B2B2B",
"S 	c #FEFEFE",
"T 	c #CFEFEF",
"U 	c #6ED2D2",
"V 	c #FFEFEF",
"W 	c #FF8989",
"X 	c #FF7F7F",
"Y 	c #E3E3E3",
"Z 	c #C0C0C0",
"[ 	c #C1C1C1",
"] 	c #D3D3D8",
"^ 	c #B0B092",
"_ 	c #DFDF1A",
"` 	c #ECEC00",
"a 	c #959515",
"b 	c #8A8A78",
"c 	c #B8B8B9",
"d 	c #EFCFCF",
"e 	c #CF5E5E",
"f 	c #FF8E8E",
"g 	c #FF7E7E",
"h 	c #AEAEAE",
"i 	c #454545",
"j 	c #444444",
"k 	c #2A2A30",
"l 	c #676746",
"m 	c #E3E321",
"n 	c #EAEA00",
"o 	c #7C7C00",
"p 	c #747463",
"q 	c #FFFDFD",
"r 	c #3ACECE",
"s 	c #DCDCDC",
"t 	c #B1B1B1",
"u 	c #C6C6CC",
"v 	c #BDBD99",
"w 	c #DEDE1E",
"x 	c #E7E700",
"y 	c #989818",
"z 	c #19190A",
"{ 	c #5E5E61",
"| 	c #39FFFF",
"} 	c #FFDFDF",
"~ 	c #FFC1C1",
" !	c #B5B5B4",
"!!	c #3B3B41",
"#!	c #63633E",
"$!	c #E0E023",
"%!	c #E6E600",
"&!	c #959518",
"'!	c #9E9E8A",
"(!	c #2C2C2F",
")!	c #5E5E5E",
"*!	c #DAE4E4",
"+!	c #90B2B2",
",!	c #FFE3E3",
"-!	c #FF7878",
".!	c #FF9797",
"0!	c #EBEBF3",
"1!	c #BFBF95",
"2!	c #DDDD1D",
"3!	c #989885",
"4!	c #EDEDF0",
"5!	c #434343",
"6!	c #E5D9D9",
"7!	c #B26C6C",
"8!	c #FF7979",
"9!	c #FF9B9B",
":!	c #E8EEF5",
";!	c #B6B68D",
"<!	c #D8D858",
"=!	c #E6E636",
">!	c #9A9A19",
"?!	c #A2A28E",
"@!	c #EBEBEF",
"A!	c #404040",
"B!	c #BDFFFF",
"C!	c #38DCDC",
"D!	c #FF9D9C",
"E!	c #E9EFF6",
"F!	c #B6B691",
"G!	c #D8D819",
"H!	c #E7E741",
"I!	c #9A9A63",
"J!	c #4F4F36",
"K!	c #656569",
"L!	c #D3D3D2",
"M!	c #414141",
"N!	c #FFFEFE",
"O!	c #BFFFFF",
"P!	c #41FFFF",
"Q!	c #EDF0F6",
"R!	c #B5B58D",
"S!	c #D8D818",
"T!	c #9A9A18",
"U!	c #A7A78E",
"V!	c #A6A6AB",
"W!	c #818181",
"X!	c #D1D1D1",
"Y!	c #C0FFFF",
"Z!	c #27ECF2",
"[!	c #BAB48C",
"]!	c #D9D955",
"^!	c #E8E85B",
"_!	c #50503B",
"`!	c #4D4D51",
"a!	c #6C6C6C",
"b!	c #CBCBCB",
"c!	c #D5EDF2",
"d!	c #67B191",
"e!	c #DDDB1A",
"f!	c #E9E923",
"g!	c #95955A",
"h!	c #A0A088",
"i!	c #BBBBBF",
"j!	c #9D9D9D",
"k!	c #9B9B9B",
"l!	c #2C2C2C",
"m!	c #EEEEF2",
"n!	c #B1AF90",
"o!	c #E4DF1C",
"p!	c #E9E900",
"q!	c #959514",
"r!	c #9E9E86",
"s!	c #9E9EA2",
"t!	c #565656",
"u!	c #585858",
"v!	c #545454",
"w!	c #C2C2C2",
"x!	c #1A1A1D",
"y!	c #CBCB1A",
"z!	c #A7A700",
"{!	c #989815",
"|!	c #9E9E84",
"}!	c #EEEEED",
"~!	c #DFDFDF",
" #	c #B0B0B0",
"!#	c #ACACAC",
"##	c #E1E1E1",
"$#	c #717154",
"%#	c #E2E218",
"&#	c #E5E500",
"'#	c #7C7C14",
"(#	c #5D5D85",
")#	c #2A2AEC",
"*#	c #9191FF",
"+#	c #B5B5AE",
",#	c #9A9A9C",
"-#	c #E8E8BD",
".#	c #EDED00",
"0#	c #939213",
"1#	c #9A9984",
"2#	c #D8D8EE",
"3#	c #C3C3FF",
"4#	c #DBDBFF",
"5#	c #E6E6E4",
"6#	c #E7E7E7",
"7#	c #919192",
"8#	c #FFFFF7",
"9#	c #E6E3B8",
":#	c #609383",
";#	c #58EDEF",
"<#	c #C6C2FF",
"=#	c #3535FF",
">#	c #8A8AFF",
"?#	c #AEAEA7",
"@#	c #353535",
"A#	c #888888",
"B#	c #313131",
"C#	c #0C0C0C",
"D#	c #616161",
"E#	c #969696",
"F#	c #D9D9D9",
"G#	c #929292",
"H#	c #A9A5A8",
"I#	c #B0EFF0",
"J#	c #3FFFFF",
"K#	c #F2F1FF",
"L#	c #D4D4FF",
"M#	c #E6E6FF",
"N#	c #EDEDEC",
"O#	c #D4D4D4",
"P#	c #EDEDED",
"Q#	c #5B5B5B",
"R#	c #838383",
"S#	c #D0D0D0",
"T#	c #363636",
"U#	c #5F5F5F",
"V#	c #868686",
"W#	c #808080",
"X#	c #323232",
"Y#	c #E9E7E7",
"Z#	c #BAF6F6",
"[#	c #3CF6F6",
"]#	c #F6F6F6",
"^#	c #F8F8F6",
"_#	c #F7F7F6",
"`#	c #F8F8F8",
"a#	c #575757",
"b#	c #A0A0A0",
"c#	c #686868",
"d#	c #A8A8A8",
"e#	c #333333",
"f#	c #101010",
"g#	c #202020",
"h#	c #191F1F",
"i#	c #0D1F1F",
"j#	c #1F1F1F",
"k#	c #0F0F0F",
"l#	c #171717",
"m#	c #5A5A5A",
"n#	c #AAAAAA",
"                                                ",
"                                      # $ #     ",
"      % & ' ( ) * + , - - , + * . 0 1 2 # 3 4   ",
"      5 6 7 8 9 : ; < = = < > ? @ A B # C #     ",
"      D E F G H I J K K K K K L M N O P Q       ",
"      R S T U V W X Y Z Z [ ] ^ _ ` a b c       ",
"      R S d e f g K h i j k l m n o p           ",
"      R q F r g K K s t u v w x y z {           ",
"      R q F | K } ~  !!!#!$!%!&!'!(!)!          ",
"      R S *!+!,!-!.!0!1!2!%!&!3!4!5!=           ",
"      R S 6!7!8!9!:!;!<!=!>!?!@!K A!+           ",
"      R q B!C!D!E!F!G!H!I!J!K!L!K M!+           ",
"      R N!O!P!Q!R!S!%!T!U!V!W!X!K M!+           ",
"      R q Y!Z![!]!^!T!_!`!a!b!K K M!+           ",
"      D K c!d!e!f!g!h!i!j!k!s K K M!+           ",
"      l!m!n!o!p!q!r!s!t!u!u!v!w!K M!+           ",
"      x!M y!z!{!|!}!~! # # #!###K M!+           ",
"      $#%#&#'#(#)#*#+#i i i & K K M!+           ",
"    ,#-#.#0#1#2#3#4#5#w!w!Z 6#K K M!=           ",
"    7#8#9#:#;#<#=#>#?#@#@# #A#B#B#C#D#          ",
"  E#F#G#H#I#J#K#L#M#N#O#O#P#Q#R#S#T#U#          ",
"  V#W#X#Y#Z#[#]#^#_#]#`#`#]#a#b#c#a#d#          ",
"e#    f#g#h#i#j#j#j#j#j#j#j#k#l#m#n#            ",
"                                                "};