/* XPM */ 
static char * lig_bookmark_xpm[] = {
"24 24 33 1",
" 	c None",
"!	c black",
"#	c #CCCC99",
"$	c #B2B2B2",
"%	c #996666",
"&	c #FF0000",
"'	c #FFFF00",
"(	c #FFCC00",
")	c #FF3300",
"*	c #868686",
"+	c #FF3333",
",	c #999966",
"-	c #969696",
".	c #CCCC00",
"0	c #CCCC33",
"1	c #CCCC66",
"2	c #999933",
"3	c #FF9900",
"4	c #999999",
"5	c #FF6600",
"6	c #CC3333",
"7	c #CC9966",
"8	c #808000",
"9	c #666633",
":	c #A0A0A4",
";	c #99CC00",
"<	c #999900",
"=	c #E7E7D6",
">	c #F8F8F8",
"?	c #FFFFCC",
"@	c #FFFF33",
"A	c #E3E3E3",
"B	c #222222",
"                        ",
"        ########    $%& ",
"        '''(('''$  $%&& ",
"        ''')&'''* $*+&& ",
"        '''')'''*$,,&&- ",
"        '''')'''*,'.*-  ",
"        '''')''01'.2-   ",
"        '''3&30,..24    ",
"        '''5567'894     ",
"        100000'.2:      ",
"        100*0'.9:       ",
"        ''00'.20:       ",
"        '00'.20'*       ",
"        ,0';,6''*       ",
"       40'<%63''*       ",
"      40'<,0('''*       ",
"     -0<<%6)))''*       ",
"    -0'8,0((((''*       ",
"   -='<,$,,,,,,,*       ",
"   ->?*$@''''''@        ",
"  -A44$ ''''''''-       ",
" $*-$   ''''''''*       ",
" B$     ''''''''*       ",
"                        "};