/* XPM */ 
static char * lig_get_bookmark_xpm[] = {
"24 24 28 1",
" 	c None",
"!	c black",
"#	c #CCCC99",
"$	c #FFFF00",
"%	c #FFCC00",
"&	c #CCCC66",
"'	c #FF3300",
"(	c #FF6600",
")	c #CCCC33",
"*	c #A0A0A4",
"+	c #FF9900",
",	c #D7D7D7",
"-	c #999966",
".	c #FF9999",
"0	c #B2B2B2",
"1	c #E3E3E3",
"2	c #FF3333",
"3	c #FF6666",
"4	c #CC9999",
"5	c #FF7C80",
"6	c #FF0000",
"7	c #DDDDDD",
"8	c #FF5050",
"9	c #CC3333",
":	c #CCCCCC",
";	c #996666",
"<	c #CC6666",
"=	c #FFFF33",
"                        ",
"  #$$$%$$$&             ",
"  #$$%'($$)*            ",
"  #$$$%'$$)*            ",
"  #$$$%'$$)*            ",
"  #$$$%'$$)*            ",
"  #$$$('%$)*            ",
"  #$$%((+$)*      ,     ",
"   &))))))-*      .,    ",
"   &&&&&&&-0 ,111123,   ",
"  #$$$++$$)0 455552637  ",
"  #$%(((+$)* 8666666637 ",
"  #$$+$+'$)* 866666669: ",
"  #$$$((%$)* 4;<<;669*  ",
"  #$%(+%$$)* 0000029*   ",
"  #$%6('+$)*      ;*    ",
"  #$$%%%%$)*      0     ",
"   #-------*            ",
"   =))))))&             ",
"  #$$$$$$$)*            ",
"  #$$$$$$$)*            ",
"  #$$$$$$$)*            ",
"  #%'%(%($)*            ",
"                        "};