/* XPM */ 
static char * lig_ecb_xpm[] = {
"24 24 25 1",
" 	c None",
"!	c black",
"#	c #A6CAF0",
"$	c #B4E6FF",
"%	c #B4CDFF",
"&	c #B8B8B8",
"'	c #A0A0A4",
"(	c #D2D2D2",
")	c #F8F8F8",
"*	c #EBEBEB",
"+	c #929292",
",	c #C0C0C0",
"-	c #6C6CFF",
".	c #6C9DFF",
"0	c #858585",
"1	c white",
"2	c #DEDEDE",
"3	c #90B5FF",
"4	c #48C2FF",
"5	c #24B6FF",
"6	c #808080",
"7	c #4885FF",
"8	c #B4B4FF",
"9	c #C5C5C5",
":	c #787878",
"  #$$$$$%%%%%%###&'     ",
"  ())))))))))!!)*#++,,, ",
"  ()-----****!!)*#.0+,, ",
"  ())))))*1))!!)23456+, ",
"  ()**------)!!**3.776+ ",
"  ()1111111**!!**%%88+0 ",
"  ()---****)*!!*****%++ ",
"  ()11111*))*!!*----%++ ",
"  9*)------**!!****$%++ ",
"  9***111111*!!*****%++ ",
"  9*11111111*!!!!!!!!++ ",
"  9*-------**!!!!!!!!++ ",
"  ,1****1111*!!*****%++ ",
"  ,****-----*!!*---*%++ ",
"  ,*******1**!!*****%++ ",
"  ,**********!!11---%++ ",
"  ,**********!!*****%++ ",
"  ,!!!!!!!!!!!!!!!!!!++ ",
"  ,!!!!!!!!!!!!!!!!!!++ ",
"  &21111111111111***%++ ",
"  &%1----11**1---111%++ ",
"  &$111111---11111--%++ ",
"  &#**---**1*11--***#+0 ",
"  &+66666666666666666:+ "};