/* XPM */ 
static char * lig_ecb_comp_buff_xpm[] = {
"24 24 31 1",
" 	c None",
"!	c black",
"#	c #A6CAF0",
"$	c #B4E6FF",
"%	c #B4CDFF",
"&	c #B8B8B8",
"'	c #A0A0A4",
"(	c #D2D2D2",
")	c #F8F8F8",
"*	c #EBEBEB",
"+	c #929292",
",	c #C0C0C0",
"-	c white",
".	c #6C9DFF",
"0	c #858585",
"1	c #DEDEDE",
"2	c #90B5FF",
"3	c #48C2FF",
"4	c #24B6FF",
"5	c #808080",
"6	c #6C6CFF",
"7	c #4885FF",
"8	c #B4B4FF",
"9	c #C5C5C5",
":	c #B590FF",
";	c #9090FF",
"<	c #121212",
"=	c #2C2C2C",
">	c #FF4848",
"?	c #FF2424",
"@	c #787878",
"  #$$$$$%%%%%%###&'     ",
"  ()))))))))))))*#++,,, ",
"  ()-*********))*#.0+,, ",
"  ())*****-))*))12345+, ",
"  ()*66666)))))**2.775+ ",
"  ()-------66666*%%88+0 ",
"  ())66666*))*******%++ ",
"  ()-----))))**666**%++ ",
"  9*)66666*********$%++ ",
"  9*)-------6666**$$%++ ",
"  9*-----------%%###%++ ",
"  9**666666666666666#++ ",
"  ,-----------------#++ ",
"  ,**:;;;;----;;;;;;#++ ",
"  ,**66666666#$$$$$$%++ ",
"  ,*****-----------$%++ ",
"  ,<<<<<<<<<<<<<<<<<<++ ",
"  ,<<<<<<<<<<<<<<<<<=++ ",
"  ,(-******->>-*****#++ ",
"  &1-66666-?>>?--***%++ ",
"  &%--------??--6666%++ ",
"  &$666666-????-----%++ ",
"  &########-??-######+0 ",
"  &+55555555555555555@+ "};