/* XPM */ 
static char * lig_ecb_layouts_xpm[] = {
"24 24 168 2",
"  	c None",
"! 	c black",
"# 	c #A6CAF0",
"$ 	c #B4E6FF",
"% 	c #B4CDFF",
"& 	c #B8B8B8",
"' 	c #A0A0A4",
"( 	c #D2D2D2",
") 	c #F8F8F8",
"* 	c #EBEBEB",
"+ 	c #929292",
", 	c #C0C0C0",
"- 	c #6C6CFF",
". 	c #FCFCFC",
"0 	c #DEDEDE",
"1 	c #CDCDCD",
"2 	c #D8D8D8",
"3 	c #6C9DFF",
"4 	c #858585",
"5 	c #E3E3E3",
"6 	c #A6A6A6",
"7 	c #ABABAB",
"8 	c #BDBDBD",
"9 	c #C2C2C2",
": 	c #90B5FF",
"; 	c #48C2FF",
"< 	c #24B6FF",
"= 	c #808080",
"> 	c #E6E6E6",
"? 	c #B4B4B4",
"@ 	c #CFCFCF",
"A 	c #A1B4AD",
"B 	c #3E7662",
"C 	c #145D42",
"D 	c #276A50",
"E 	c #83A296",
"F 	c #E4E4E4",
"G 	c #4885FF",
"H 	c #F7F7F7",
"I 	c #C7C7C7",
"J 	c #E5E5E5",
"K 	c #86A99C",
"L 	c #296F54",
"M 	c #0C5F3C",
"N 	c #367A5D",
"O 	c #ADBFB8",
"P 	c #BABBBA",
"Q 	c #B4B4FF",
"R 	c #E7E7E7",
"S 	c #BBD1C9",
"T 	c #35795E",
"U 	c #388060",
"V 	c #37815F",
"W 	c #F5F8F6",
"X 	c #F0F3F1",
"Y 	c #FEFEFE",
"Z 	c #FBFBFB",
"[ 	c #E2E2E2",
"] 	c #FBFCFB",
"^ 	c #3A7E61",
"_ 	c #75A891",
"` 	c #026434",
"a 	c #C5DAD0",
"b 	c #A0A0A0",
"c 	c #F7F9F8",
"d 	c #409267",
"e 	c #E5F0EA",
"f 	c #C5C5C5",
"g 	c #E9E9E9",
"h 	c #C1D6CD",
"i 	c #3E8464",
"j 	c #458E6A",
"k 	c #2D8558",
"l 	c #DFDFDF",
"m 	c #DCDCDC",
"n 	c #9FCDB4",
"o 	c #53A477",
"p 	c #55A379",
"q 	c #DBDBDB",
"r 	c #E1E1E1",
"s 	c #F6F6F6",
"t 	c #7AAA94",
"u 	c #559677",
"v 	c #258152",
"w 	c #489A6E",
"x 	c #B8DBC7",
"y 	c #F3F9F6",
"z 	c #59B17D",
"{ 	c #6AB78A",
"| 	c #108743",
"} 	c #AAD3BC",
"~ 	c white",
" !	c #B5B5B5",
"!!	c #F6F7F7",
"#!	c #70A18D",
"$!	c #257650",
"%!	c #5A9D7B",
"&!	c #137C44",
"'!	c #0E8341",
"(!	c #9ECAB1",
")!	c #EEEEEE",
"*!	c #8ED0A7",
"+!	c #6AC18C",
",!	c #49B072",
"-!	c #229953",
".!	c #98CBAE",
"0!	c #131313",
"1!	c #989898",
"2!	c #BAD1C7",
"3!	c #3C8663",
"4!	c #4A966F",
"5!	c #0C7C3E",
"6!	c #41A069",
"7!	c #E7E8E7",
"8!	c #CFEAD9",
"9!	c #61C586",
":!	c #2CAD5D",
";!	c #5CBA81",
"<!	c #888888",
"=!	c #0D0D0D",
">!	c #B2B2B2",
"?!	c #9BC1AE",
"@!	c #248251",
"A!	c #0D8040",
"B!	c #779483",
"C!	c #616161",
"D!	c #D9D9D9",
"E!	c #E9F4ED",
"F!	c #4AC776",
"G!	c #26B359",
"H!	c #A6DABA",
"I!	c #171717",
"J!	c #1A1A1A",
"K!	c #C8C8C8",
"L!	c #79B194",
"M!	c #529F74",
"N!	c #4A4A4A",
"O!	c #CACACA",
"P!	c #99DCB0",
"Q!	c #3BC56B",
"R!	c #3FBD6C",
"S!	c #424242",
"T!	c #DADADA",
"U!	c #BCC5C1",
"V!	c #C6C6C6",
"W!	c #C7E2D1",
"X!	c #33B663",
"Y!	c #2AB55C",
"Z!	c #BDE3CB",
"[!	c #717171",
"]!	c #2E2E2E",
"^!	c #BABABA",
"_!	c #ECECEC",
"`!	c #E0E7E3",
"a!	c #92C6A8",
"b!	c #26A156",
"c!	c #2BA85B",
"d!	c #AEDABF",
"e!	c #FDFDFD",
"f!	c #ACACAC",
"g!	c #313131",
"h!	c #949595",
"i!	c #9BBFAB",
"j!	c #7DB997",
"k!	c #83B598",
"l!	c #A7B0AA",
"m!	c #A7A7A7",
"n!	c #787878",
"    # $ $ $ $ $ % % % % % % # # # & '           ",
"    ( ) ) ) ) ) ) ) ) ) ) ! ! ) * # + + , , ,   ",
"    ( ) - - - - - . 0 1 2 ! ! ) * # 3 4 + , ,   ",
"    ( ) ) ) ) ) 5 6 7 8 9 9 ! ) 0 : ; < = + ,   ",
"    ( ) - - - > ? @ A B C D E F * : 3 G G = +   ",
"    ( ) ) ) H I J K L M N O P 5 * % % Q Q + 4   ",
"    ( - - ) F R S T U V W 7 , X Y ) ) * % + +   ",
"    ( ) ) Z [ ] ^ _ ` a 5 b c d e - - - % + +   ",
"    f ) Y g J h i j k J l m n o p Y ) ) % + +   ",
"    f q I r s t u v w x 0 y z { | } ~ ) % + +   ",
"    f Y  !!!#!$!%!&!'!(!)!*!+!,!-!.!Y ) % + +   ",
"    f ) 0!1!2!3!4!5!6!7!) 8!9!:!;!Y - - # + +   ",
"    , <!! =!>!?!@!A!B!C!D!E!F!G!H!) ) ) # + +   ",
"    , I!! ! J!K!L!M!N!O!)!P!Q!R!! ! ! ! # + +   ",
"    , ) = =!! S!T!U!V!g W!X!Y!Z!! ! ! ! % + +   ",
"    , ) ) g [!]!^!_!`!a!b!c!d!e!) ) ) ) % + +   ",
"    , - - ) ) f!g!h!i!j!k!l!! ) - - - ) % + +   ",
"    , ) ) ) ) ) ) , m! !O!! ! ) ) ) ) ) % + +   ",
"    , ( ~ * * * * * * ~ * ! ! ) - - ) ) % + +   ",
"    & 0 ~ - - - - - - - * ! ! ~ ~ ) ) * % + +   ",
"    & % ~ ~ ~ ~ ~ ~ ~ * * ! ! ~ - - - - % + +   ",
"    & $ - - - - - - ~ * * ! ! ~ ~ ~ ~ ~ % + +   ",
"    & # * * * * * * * ~ * ! ! * * * * * # + 4   ",
"    & + = = = = = = = = = = = = = = = = = n!+   "};