/* XPM */ 
static char * lig_goto_xpm[] = {
"24 24 51 1",
" 	c None",
"!	c black",
"#	c #666666",
"$	c #424242",
"%	c white",
"&	c #868686",
"'	c #0066CC",
"(	c #3399CC",
")	c #003399",
"*	c #9999CC",
"+	c #CCCCFF",
",	c #CCCCCC",
"-	c #C0C0C0",
".	c #555555",
"0	c #1C1C1C",
"1	c #A0A0A4",
"2	c #B2B2B2",
"3	c #333333",
"4	c #222222",
"5	c #F1F1F1",
"6	c #000080",
"7	c #000099",
"8	c #336699",
"9	c #999999",
":	c #333366",
";	c #0000FF",
"<	c #3300CC",
"=	c #000066",
">	c #808080",
"?	c #0000CC",
"@	c #3333FF",
"A	c #3333CC",
"B	c #393939",
"C	c #777777",
"D	c #5F5F5F",
"E	c #333399",
"F	c #4D4D4D",
"G	c #969696",
"H	c #D7D7D7",
"I	c #6633FF",
"J	c #292929",
"K	c #161616",
"L	c #6666FF",
"M	c #9999FF",
"N	c #663399",
"O	c #6666CC",
"P	c #A6CAF0",
"Q	c #EAEAEA",
"R	c #CCECFF",
"S	c #666699",
"T	c #CBCBCB",
"    #$$$$$$$$$$$$$      ",
"    $%%%%%%%%%%%%&#     ",
"    $%%%%'(''(')*&%#    ",
"    $%%%%(%++%*,*&%%#   ",
"    $%%%%*******,-...$  ",
"    $%%%%%%%%%%%%%%%%0  ",
"    $%%-11&&-&1&1&-%%0  ",
"    $%%%%%%%22222222%0  ",
"  3$45%%%%%%%%%%%%%%%0  ",
"   #67895%%%%%%%%%%%%0  ",
"    $:;<=&>-&&&-&1-%%0  ",
"    $?@ABCD2&&-&-&-%%0  ",
"   :A@EB33.F>G2>HH%%%0  ",
"  3@@IAJ!KB+K4&9G&G%%0  ",
"   $ALLMNO++DG25%%%%%0  ",
"    $EMMP++Q!K#>G2&%%0  ",
"    $CO++R5%0$95%%%%%0  ",
"   #.*++Q5%%0$95%%%%%0  ",
" #43SSSC>&&&K3F&&1-%%0  ",
"    $2&$04K444#TG&-%%0  ",
"    $GC.3.J3$3GGGH%%%0  ",
"    $,,,,,,,,,Q%%%%%%0  ",
"    #J000000000000000J  ",
"                        "};