/* XPM */
static char *_____________[] = {
/* columns rows colors chars-per-pixel */
"24 24 81 1",
"  c #000000",
". c #0A0A08",
"X c #111310",
"o c #1E1E1E",
"O c #252525",
"+ c #2B2B2A",
"@ c #343434",
"# c #383934",
"$ c #3C3C3B",
"% c #3F403B",
"& c #413F40",
"* c #454544",
"= c #484A47",
"- c #484649",
"; c #4B4C4A",
": c #4E504D",
"> c #50504E",
", c #545553",
"< c #575956",
"1 c #585856",
"2 c #5C5C5A",
"3 c #5E605D",
"4 c #61625F",
"5 c #646564",
"6 c #686765",
"7 c #676966",
"8 c #696966",
"9 c #676769",
"0 c #676968",
"q c #6A6A69",
"w c #6F706C",
"e c #70726F",
"r c #747472",
"t c #797876",
"y c #797778",
"u c #777978",
"i c #7A7B79",
"p c #81817F",
"a c #848583",
"s c #868885",
"d c #8A8B86",
"f c #8C8C8B",
"g c #949693",
"h c #9B9B9A",
"j c #9FA19E",
"k c #A1A29F",
"l c #A3A4A2",
"z c #A6A9A5",
"x c #A9A9A6",
"c c #ACADAA",
"v c #AFB0AF",
"b c #B1B2AF",
"n c #B4B5B2",
"m c #B6B8B5",
"M c #B8B9B7",
"N c #BDBEBB",
"B c #C3C5C3",
"V c #C6C8C5",
"C c #C8C9C7",
"Z c #C7C9C8",
"A c #CCCCCB",
"S c #CED0CD",
"D c #D0D2CF",
"F c #D4D5D2",
"G c #D5D8D5",
"H c #D8DAD6",
"J c #DADCDA",
"K c #DEE0DD",
"L c #E0E2DF",
"P c #E3E5E2",
"I c #E7E9E6",
"U c #E8E9E6",
"Y c #E7E9E8",
"T c #EBECEA",
"R c #EEF0ED",
"E c #F0F2EE",
"W c #EFF1F0",
"Q c #F4F5F2",
"! c #F7F9F5",
"~ c #F9F9F7",
"^ c #FFFFFE",
/* pixels */
"$yttttyiyyyuyyuyyyyyyyyO",
"yOhl.              +sf -",
"ug  5  q59 J DZ2q  x9r*-",
"yh+#9              vqi*-",
"io@$               ooO -",
"&khgBPUIIPYYTWYPJGDZBVH1",
"&ftqNbr,v5l*qq,nTTTTJJE8",
"$iq4mxtNNQQQ!~rrrr;2gFT9",
"pHChbEm<w;qn88RM4pNQUKQ7",
"iLLxbfegQcg2y!7vvw=k21E8",
"iQLcbbm8PP!jtmnn!EEEEU~8",
"ih+xccwcP255c88;q8br,6~8",
"p$^xcbmbkLRERTQ!Nppi1sQ6",
"iTJjbb,8KFp:qI7,NrtnTHE9",
"tRKzcc=TKLQ4imnr1m~qTHT8",
"4chscRII,k8rnqkLc8ce1z!5",
"i^^Vxv*vLPdQnTLHLEmm,5!7",
"ib BmgtmcTT>b9kKke1N~U!7",
"iX.*nkx>qqqNieTcwNp4t6!7",
"i^^LnKJI9Tc;qU4z4xce#s!9",
"t  5zGSDDHHKJHGKGJHLLJEq",
"iF9hjSVVVVZZVVVVVVCBCVI7",
"r^^^^^^^^^^^^^^^^^^^^^^r",
"@699588798999q8888949q9@"
};
