/* XPM */
static char *_____________[] = {
/* columns rows colors chars-per-pixel */
"24 24 242 2",
"   c #030301",
".  c #020202",
"X  c gray1",
"o  c #040301",
"O  c #070103",
"+  c #040203",
"@  c #070302",
"#  c #020401",
"$  c #020403",
"%  c #030305",
"&  c #070105",
"*  c #040205",
"=  c #040404",
"-  c #090100",
";  c #0A0000",
":  c #0B0000",
">  c #0B0001",
",  c #0B0003",
"<  c #0E0000",
"1  c #0B0B09",
"2  c #0B090A",
"3  c #100000",
"4  c #180000",
"5  c #190000",
"6  c #121210",
"7  c gray11",
"8  c #211F20",
"9  c #202020",
"0  c #232321",
"q  c #252525",
"w  c #2C2A2B",
"e  c #2A2C29",
"r  c gray20",
"t  c #343233",
"y  c #353533",
"u  c #353535",
"i  c gray23",
"p  c #3E3A3B",
"a  c #3D3D3B",
"s  c #3E3C3D",
"d  c #423837",
"f  c #40413C",
"g  c #413F40",
"h  c #434142",
"j  c gray27",
"k  c #464445",
"l  c #494441",
"z  c #494748",
"x  c #49474A",
"c  c #595758",
"v  c #5B5B5B",
"b  c #77514E",
"n  c #755250",
"m  c #705451",
"M  c #705453",
"N  c #7B5856",
"B  c #6B5F61",
"V  c gray39",
"C  c #626461",
"Z  c #636562",
"A  c #646462",
"S  c #656563",
"D  c #646663",
"F  c #646265",
"G  c #656565",
"H  c #666465",
"J  c #646665",
"K  c #666467",
"L  c #676966",
"P  c #686866",
"I  c #696967",
"U  c #6B6A66",
"Y  c #676968",
"T  c #686868",
"R  c #696B68",
"E  c #6A6A68",
"W  c #6B6B69",
"Q  c gray42",
"!  c #6A6C69",
"~  c #6A6C6B",
"^  c #6D6D6B",
"/  c #727270",
"(  c #737371",
")  c gray45",
"_  c #747371",
"`  c #747273",
"'  c #737375",
"]  c #747275",
"[  c #7B7A76",
"{  c #797B78",
"}  c #7A7A78",
"|  c #7B7A78",
" . c #7B7B79",
".. c #7B797A",
"X. c gray48",
"o. c #7B7B7B",
"O. c #7C7A7B",
"+. c #7A7C79",
"@. c #7D7E79",
"#. c #7D7D7B",
"$. c #7C7E7B",
"%. c #7B7B7D",
"&. c #7C7A7D",
"*. c gray49",
"=. c #A63C3E",
"-. c #AC393C",
";. c #AD393C",
":. c #B33739",
">. c #B43639",
",. c #8A4947",
"<. c #834B4A",
"1. c #854B49",
"2. c #834B4C",
"3. c #8A4849",
"4. c #89494A",
"5. c #9C4041",
"6. c #9E4040",
"7. c #816260",
"8. c #9D7B7A",
"9. c gray52",
"0. c #8D8E89",
"q. c #8D8D8D",
"w. c #959595",
"e. c #969495",
"r. c #9B9B99",
"t. c #9B9B9B",
"y. c #9C9E9B",
"u. c #A38F8E",
"i. c #AF9392",
"p. c #AD9B9B",
"a. c #BD9F9D",
"s. c #A2A19F",
"d. c #A2A0A1",
"f. c #A5A5A5",
"g. c #A9A8A6",
"h. c #ADA9A6",
"j. c #ABADAA",
"k. c gray68",
"l. c #B2A0A0",
"z. c #B3ABA9",
"x. c #B0B0AE",
"c. c #D0BCBB",
"v. c #CAC2C0",
"b. c #CDC1C1",
"n. c #C8C8C8",
"m. c #CBCBC9",
"M. c #CDCDCD",
"N. c #D5C7C7",
"B. c #DFC1C1",
"V. c #D7D9D6",
"C. c #D8DAD7",
"Z. c #DBD7D8",
"A. c #D8D8D8",
"S. c #DCDEDB",
"D. c gainsboro",
"F. c #DDDDDD",
"G. c #E4CFCE",
"H. c #E0D0D0",
"J. c #EAD5D4",
"K. c #EEDEDF",
"L. c #FFD6D8",
"P. c #FFDCDB",
"I. c #FFDBDD",
"U. c #FFDCDD",
"Y. c #DFE1DE",
"T. c #FFDFE0",
"R. c #FFDFE3",
"E. c gray89",
"W. c #ECE6E6",
"Q. c #E7E9E6",
"!. c #E7E9E8",
"~. c gray91",
"^. c gray92",
"/. c #EBEDEA",
"(. c #EEEDE9",
"). c #ECECEA",
"_. c #EDEDEB",
"`. c #EEEDEB",
"'. c #ECEEEB",
"]. c #ECECEC",
"[. c gray93",
"{. c #EDEFEC",
"}. c #ECEEED",
"|. c #EEEEEE",
" X c #FFE1E3",
".X c #FFE3E2",
"XX c #FFE2E4",
"oX c #FFE3E4",
"OX c #FBE7E6",
"+X c #FFE6E5",
"@X c #FCE7E6",
"#X c #FAE8E6",
"$X c #FBE9E7",
"%X c #FBE7E8",
"&X c #FBE7E9",
"*X c #F2E8E9",
"=X c #F3EBE9",
"-X c #F4EAE9",
";X c #F0ECE9",
":X c #F1EDEA",
">X c #FFEAE8",
",X c #FFE9EA",
"<X c #FFECEB",
"1X c #FFEFED",
"2X c #FFEEEE",
"3X c #FFEFEE",
"4X c #FFEFEF",
"5X c #EFF1EE",
"6X c #F7F2EF",
"7X c #FFF0ED",
"8X c gray94",
"9X c #F6F5F3",
"0X c #F4F6F3",
"qX c gray96",
"wX c #F4F6F5",
"eX c #F7F7F5",
"rX c #FFF1F0",
"tX c #FCF2F1",
"yX c #FFF2F1",
"uX c #FFF5F4",
"iX c #FFF6F5",
"pX c #FFF7F6",
"aX c #F7F9F6",
"sX c #F8F8F6",
"dX c #FFF8F4",
"fX c #FFF8F5",
"gX c #FFF8F6",
"hX c #F7F9F8",
"jX c #FFF8F8",
"kX c #FFF9F8",
"lX c #FFFAF8",
"zX c #FFFBF8",
"xX c #FFFAF9",
"cX c #FFFBF9",
"vX c #FFFCF9",
"bX c #FDFDFB",
"nX c #FFFCFB",
"mX c #FEFDFB",
"MX c #FCFEFB",
"NX c #FDFDFD",
"BX c #FDFFFC",
"VX c #FCFEFD",
/* pixels */
"a  . .` ....`  .(  .` ..` ..( [ ` &. .` %.' %.q ",
" .0 e.d.2 + + X + + + + + + X X + * + w 9.q.X k ",
"' e.* * K * * K C G X C.X M.n.v K + X f.K ( p x ",
" .e.t p B > * * + X X X X X X X + + X k.Q [ h k ",
"%.8 r d 5 5 , % X X $ $ X X % * % % + 8 7 q % z ",
"d s.r.u.U.4.R.&XW.E.!.Q.^.nX*XK.J.G.H.N.b.v.Z.c ",
"s 0.+.7.U.-.oXL.&X|.).|.).nXuX2X>X>XyXyX7XiXyXS ",
"f $.! N =.:.5.2.> X X X X nXM 2X4.,.2Xn yXm bXT ",
" .C.M.i. X5.7X$X=X).|.].|.bXnXiXgXgXnXgXbXgXqXS ",
"{ Q.F.p.P.<.$X|.).$ X X X X X X )./.).)./.5X5X! ",
"*.qXQ.h.$X$X=X/.5X5X/.].|.]././.|.|.|.|./.).hXG ",
" .t.e g.;X;X)./././.|.X $ X |.).$ o $ ).).).aX! ",
"*.p VXz. X+X=X|.].|.].].|.).|.|./.|.].|.5X).qXI ",
" .|.D.p.I.4.T.$X* $ $ X X + -X, , , , > OX$X6XI ",
"+.5XD.a. X;.oXI.>X].|.|./.-XuX7XyXyXyX7X>X>XOXT ",
"D j.r.8.=.>.5.2.> X X X $ , iXn yXb b 7X,.<.7X! ",
"+.MXVXG.P.6.2X$X(.).)./.5X(.nXgXnXgXnXdXdXgXbXS ",
"+.x.$ c.L.1.$X/./.5X5X/././././.5X).5X]././.sXI ",
"+.6 1 l $X$X).).).$ X $ $ $ X X /.$ X $ $ /.0XI ",
"*.bXbXY.5X/./.5X/./.|.|.).|.).|.].5X].]./.5XaXS ",
"+.o + G /./.5X/./././././.5X/.5X5X/./.5X5X/.5X! ",
" .C.G t././././.5X/.5X/./.)./.)././././././.^.T ",
"( bXbXbXVXVXVXVXbXbXVXVXMXMXVXVXbXMXbXMXbXVXVX( ",
"y ! S T V T I I L I T Y L L Y Y L L L C D T G t "
};
