/* XPM */ 
static char * lig_hlt_xpm[] = {
"24 24 55 1",
" 	c None",
"!	c black",
"#	c #996633",
"$	c #555555",
"%	c #808080",
"&	c #FF6633",
"'	c #666666",
"(	c #F1F1F1",
")	c #DDDDDD",
"*	c #CBCBCB",
"+	c #A0A0A4",
",	c #C0C0C0",
"-	c #B2B2B2",
".	c #CCCCCC",
"0	c #EFD6C6",
"1	c #CC9933",
"2	c #CC6633",
"3	c #D7D7D7",
"4	c #969696",
"5	c #996600",
"6	c #FF0000",
"7	c #E3E3E3",
"8	c #EAEAEA",
"9	c #CCCC99",
":	c #993300",
";	c #663300",
"<	c white",
"=	c #868686",
">	c #5F5F5F",
"?	c #777777",
"@	c #F8F8F8",
"A	c #FFCC99",
"B	c #993333",
"C	c #333300",
"D	c #CC9999",
"E	c #424242",
"F	c #666633",
"G	c #FF9999",
"H	c #161616",
"I	c #292929",
"J	c #999999",
"K	c #CC9966",
"L	c #663333",
"M	c #1C1C1C",
"N	c #FF9966",
"O	c #333333",
"P	c #FF7C80",
"Q	c #CC6666",
"R	c #222222",
"S	c #330000",
"T	c #996666",
"U	c #ADA990",
"V	c #393939",
"W	c #FFFBF0",
"X	c #4D4D4D",
"                       #",
" $%%%%%%%%%%%%%%%%%%%%#&",
" '()*+,))-.-.++,)-)(0012",
" '(3,4-33+,+*44-)-3-2&#5",
" ')666666666666647*2&255",
" '(.37.333).8(7*392&2#:;",
" '<<(4=,(=>-'?(.@A&25B;C",
" '@883)666667(.(D22#5:CC",
" ')%4E?++='?%)FG22B:;CHI",
" '8-,J-(<-+(+K2&#BLCCH!E",
" ')4(*J''-=7K2&##LCMM;HE",
" '8.6666663(DN##5;MC;9OE",
" '3%J>4=*3(7GGPQLRSL*<OE",
" '8.<)-37(<TGDQLISLU7<OE",
" '*E+%OE+(,QQ#LVLTU=.<OE",
" '8-6666),TQLLLD0(.3<<OE",
" '<3+*>,<$LLTD3W8,8+,<OE",
" '@)33,)%HHX))8((7)3(<OE",
" '3?+>>JXV'7('6666668<OE",
" '@<<<<<=-)7<<<<<<<<<<OE",
" '<<<<<<83-+.337<<<<<<OE",
" X>>>>>>>>EVVVVE>>>>>>HE",
" XVOOOOOOOVVVVVVOOOOOOVX",
"                        "};