/* XPM */ 
static char * lig_prev_diff_xpm[] = {
"24 24 7 1",
" 	c None",
"!	c black",
"#	c #000100",
"$	c #BBBDBA",
"%	c white",
"&	c #FF0000",
"'	c #6B6B66",
"                        ",
"                        ",
"                        ",
" ##############         ",
" #$%%%%%%%%%%$#         ",
" #%%%%%%%%%%%%#         ",
" #%&&%$''%&&&%#         ",
" #%%%%%%%%%%%%#         ",
" #%'$%&&&%&&&%#&&&&&    ",
" #%%%%%%%%%%%%#&&&      ",
" #%'$%$''%''$%#&&&&&    ",
" #%%%%%%%%%%%%#&& &&&   ",
" #%%'$%$''%''%# &  &&   ",
" #%%%%%%%%%%%%#    &&   ",
" #%$'%'$%$''$%#    &&   ",
" #%%%%%%%%%%%%#    &&   ",
" #$%%%%%%%%%%$#    &&   ",
"  ############%    &&   ",
"                   &&   ",
"                   &&   ",
"                   &&   ",
"                        ",
"                        ",
"                        "};