/* XPM */ 
static char * lig_next_diff_xpm[] = {
"24 24 7 1",
" 	c None",
"!	c black",
"#	c #FF0000",
"$	c white",
"%	c #000100",
"&	c #BBBDBA",
"'	c #6B6B66",
"                        ",
"                        ",
"                        ",
"   ##                   ",
"   ##                   ",
"   ##                   ",
"   ##    $%%%%%%%%%%%%  ",
"   ##    %&$$$$$$$$$$&% ",
"   ##    %$$$$$$$$$$$$% ",
"   ##    %$&''&$&'$'&$% ",
"   ##    %$$$$$$$$$$$$% ",
"   ##  # %$''$''&$&'$$% ",
"   ### ##%$$$$$$$$$$$$% ",
"    #####%$&''$''&$&'$% ",
"      ###%$$$$$$$$$$$$% ",
"    #####%$###$###$&'$% ",
"         %$$$$$$$$$$$$% ",
"         %$###$''&$##$% ",
"         %$$$$$$$$$$$$% ",
"         %&$$$$$$$$$$&% ",
"         %%%%%%%%%%%%%% ",
"                        ",
"                        ",
"                        "};