/* XPM */ 
static char * lig_save_sess_xpm[] = {
"24 24 45 1",
" 	c None",
"!	c black",
"#	c #CCCCFF",
"$	c #6699CC",
"%	c #66CCCC",
"&	c #99CCCC",
"'	c #CCECFF",
"(	c #3399CC",
")	c #F1F1F1",
"*	c #336666",
"+	c #A6CAF0",
",	c #66CCFF",
"-	c #336699",
".	c #CCCC99",
"0	c #FFCC99",
"1	c #CCCC66",
"2	c #99CCFF",
"3	c #3366CC",
"4	c #EFD6C6",
"5	c #FFFFCC",
"6	c #969696",
"7	c #FFFF99",
"8	c white",
"9	c #424242",
":	c #777777",
";	c #F8F8F8",
"<	c #666666",
"=	c #A0A0A4",
">	c #D7D7D7",
"?	c #996633",
"@	c #999933",
"A	c #FFCC66",
"B	c #FFFBF0",
"C	c #CC9966",
"D	c #FFFF66",
"E	c #868686",
"F	c #666633",
"G	c #5F5F5F",
"H	c #C0DCC0",
"I	c #CC9933",
"J	c #FFCC33",
"K	c #EAEAEA",
"L	c #4D4D4D",
"M	c #CCCC33",
"N	c #555555",
"            #$%         ",
"            &'(         ",
"            $)$*        ",
"           +&',-        ",
"  .00.10   +++23$&%%    ",
" 1.4555. ++$'2''''+36   ",
" 15777.$+'''+2'8)239:   ",
" 05777.$,';'2';;2-9<    ",
" 0777777=(,22')>$?@A.1  ",
" 077777770$&.00044B88C: ",
" A777777DAE.B'';''B84FG ",
" A0AAAAAA0.)+HH'''BBI9< ",
" A0AJ0455K'+H77H++B5?G  ",
" A0AA5777H2H777704519<  ",
" AAJ057777.77777775?L   ",
" 1AM477777777777771F<   ",
" AA157777777777770@9    ",
" 1J05D77777777777AF<    ",
" 1A47AAAAA000AAAM@9     ",
" 1A5AAAAAAAAMI?FFL<     ",
" 105AAAMI@?FLN<G<       ",
" .01I?FF9NG<<           ",
" CCFLGG<<               ",
"  <G<                   "};