/* XPM */ 
static char * lig_open_sess_xpm[] = {
"24 24 41 1",
" 	c None",
"!	c black",
"#	c #A6CAF0",
"$	c #99CCFF",
"%	c #CCECFF",
"&	c #33CCFF",
"'	c #66CCFF",
"(	c #F1F1F1",
")	c #99CCCC",
"*	c white",
"+	c #F8F8F8",
",	c #9999CC",
"-	c #B2B2B2",
".	c #CCCC66",
"0	c #C0C0C0",
"1	c #FFCC99",
"2	c #FFFFCC",
"3	c #FFFF99",
"4	c #C0DCC0",
"5	c #777777",
"6	c #CCCCCC",
"7	c #999966",
"8	c #CC9933",
"9	c #CCCC99",
":	c #FFCC66",
";	c #EFD6C6",
"<	c #E7E7D6",
"=	c #FFFBF0",
">	c #999933",
"?	c #A0A0A4",
"@	c #CCFFFF",
"A	c #424242",
"B	c #996633",
"C	c #555555",
"D	c #FFCC33",
"E	c #FFFF66",
"F	c #4D4D4D",
"G	c #666633",
"H	c #CCCC33",
"I	c #5F5F5F",
"J	c #666666",
"          #$$%          ",
"         %%&'()         ",
"        %**%%(+,        ",
"       %(***%#((,       ",
"      %%*+*(##%(%-      ",
"   ...%+(((####%(#0     ",
"  .11)%(((######%()0    ",
" .1234#%%%######%%%,0   ",
" .23330$%#######%%%,50  ",
" .23333-$%##$$##64-789  ",
" 923333:-$#)9999;<<=<>5 ",
" .333333:?)9<%%@%%+*.A5 ",
" .1::::::91(#$%%#<=2BC  ",
" .1::.;2222##%%$92=.A5  ",
" .1:D223333;#$$6E22>F   ",
" .::.23333339$4333:G5   ",
" .:D13333333E913338A    ",
" .:H;33333333:333:G5    ",
" .D.2E3333333333:8A     ",
" .H13:::::1:::H8>GI     ",
" .H;1:::::H8BGGFC5      ",
" ..2:D88BGAFJ55         ",
"  .>BGAF55              ",
"   J55                  "};