/* XPM */ 
static char * lig_show_nu_xpm[] = {
"24 24 14 1",
" 	c None",
"!	c black",
"#	c #C5C5C5",
"$	c white",
"%	c #FFFBF0",
"&	c #808080",
"'	c #D2D2D2",
"(	c #090909",
")	c #858585",
"*	c #DEDEDE",
"+	c #787878",
",	c #F8F8F8",
"-	c #C0DCC0",
".	c #EBEBEB",
"                        ",
"                        ",
" #$$$$%$$$$$$$$$$%%%&'  ",
" '%'##'#''''''''''''&'  ",
" #$''(#''''''''''''#)'  ",
" *%#!!''''''''''''''&'  ",
" #%*'!''!!!!!!!!!!''&'  ",
" '%'!!!'''''''''*'''+'  ",
" #$'''''''''''''#*#')'  ",
" '%'!!''''''''''''''&'  ",
" '%'''!'''''''''''''&'  ",
" #$''!''!!!!!!!!!!''&'  ",
" '%#(!!''''''''''''#)'  ",
" #$'#'''''''''''''''&'  ",
" '$'!!'#''''''''''''&'  ",
" ',''!!''''''''''''#)'  ",
" '$''#!'!!!!!!!!!!''&'  ",
" '$'!(!'''''''''''''&'  ",
" '$#''''''''''''''-'&'  ",
" '.''#'''''''''''''#)'  ",
" #)&&&)&&&&&&&&&)&&)+'  ",
"                        ",
"                        ",
"                        "};