/* XPM */ 
static char * lig_msmeller_xpm[] = {
"24 24 34 1",
" 	c None",
"!	c black",
"#	c #090909",
"$	c #1F1F1F",
"%	c #6C6C6C",
"&	c #454545",
"'	c #2C2C2C",
"(	c #393939",
")	c #787878",
"*	c #525252",
"+	c #121212",
",	c #DEDEDE",
"-	c #C0C0C0",
".	c #B8B8B8",
"0	c #EBEBEB",
"1	c #5F5F5F",
"2	c white",
"3	c #C5C5C5",
"4	c #F8F8F8",
"5	c #D2D2D2",
"6	c #858585",
"7	c #A0A0A4",
"8	c #ABABAB",
"9	c #9F9F9F",
":	c #808080",
";	c #929292",
"<	c #CDB4FF",
"=	c #7E00BA",
">	c #B590FF",
"?	c #9D6CFF",
"@	c #9300D9",
"A	c #8548FF",
"B	c #54007C",
"C	c #FFB590",
"       ##$$$$           ",
"   %%&'(&%)%*(+%%%%%%*  ",
"  ,,-&*.,0000,1),,,,,1' ",
"  22%&32220004,1322221+ ",
"  20%15236%&167868-421+ ",
"  2-*8,56&*&&**6195221+ ",
"  29&88861)6:%&($*77-1+ ",
"  29*:98;5<<405%$(7,01+ ",
"  28((77=>??0225($*321+ ",
"  251*-444?==<20*&6021+ ",
"  24)*,22,@?=>46(%)421+ ",
"  22)(0227=?A<-$*:%421+ ",
"  228':024040-1')1).51+ ",
"  22;B(&1;9)*'(&*&8351+ ",
"  22401$'''$&*&+%%3221+ ",
"  22223)%1);-.9*189,21+ ",
"  2286;6*&:)6111&*9;,%+ ",
"  2200000.;;;;85)&199&+ ",
"  2222,73.7777756*(*91$ ",
"  2208777777.8:6;6&$1C* ",
"  222,,,,,,,0055,,5%*($ ",
"  ,55,,,,,,,,,,,,,,-*++ ",
"  +(&&&&&&&&&&&&&&&&($# ",
"                        "};