/* XPM */ 
static char * lig_outline_1_xpm[] = {
"24 24 6 1",
" 	c None",
"!	c black",
"#	c #FFFF33",
"$	c white",
"%	c #EAEAEA",
"&	c #868686",
"                        ",
"                        ",
"                        ",
"  !!!!!!!!!!!#######    ",
"  !$$$%%%%%%!#!#!#!#! ! ",
"  !&&&&&&&&&!#######    ",
"  !!!!!!!!!!!           ",
"                        ",
"  !!!!!!!!!!!#####      ",
"  !$$$%%%%%%!#!#!#! ! ! ",
"  !&&&&&&&&&!#####      ",
"  !!!!!!!!!!!           ",
"                        ",
"  !!!!!!!!!!!#########  ",
"  !$$$%%%%%%!#!#!#!#!#! ",
"  !&&&&&&&&&!#########  ",
"  !!!!!!!!!!!           ",
"                        ",
"  !!!!!!!!!!!#######    ",
"  !$$$%%%%%%!#!#!#!#! ! ",
"  !&&&&&&&&&!#######    ",
"  !!!!!!!!!!!           ",
"                        ",
"                        "};