/* XPM */ 
static char * lig_shell_xpm[] = {
"24 24 34 1",
" 	c None",
"!	c black",
"#	c #969696",
"$	c #C0C0C0",
"%	c #E3E3E3",
"&	c #EAEAEA",
"'	c #F1F1F1",
"(	c white",
")	c #B2B2B2",
"*	c #777777",
"+	c #D7D7D7",
",	c #666666",
"-	c #1C1C1C",
".	c #222222",
"0	c #CCCCCC",
"1	c #868686",
"2	c #333333",
"3	c #393939",
"4	c #A0A0A4",
"5	c #003300",
"6	c #292929",
"7	c #161616",
"8	c #424242",
"9	c #C0DCC0",
":	c #336633",
";	c #4D4D4D",
"<	c #669966",
"=	c #006600",
">	c #5F5F5F",
"?	c #F8F8F8",
"@	c #555555",
"A	c #99CC99",
"B	c #339933",
"C	c #DDDDDD",
"                        ",
"      #$$$$$$$$$$$$$$   ",
"      %%%&'''''''''''   ",
"    #%()*$$$)))$$))+%   ",
"   #%(&,-..........#%   ",
"   %('0*!!!!!!!!!!!1%   ",
" #%(&0'1!!!!!!!!!!!1%   ",
" $(&+&(1!!!!!!!!!!!1%   ",
" $),23$4.!!!#5!!!!!1%   ",
" $+674(($3(89-!(*6!1%   ",
" $%6,':;1:<=(,!#(+51%   ",
" $%61(,!!!!!>(!5:(#1%   ",
" $%6*?14(5:-;(7;(%@1%   ",
" $%6.<((A:(23(3&)>51%   ",
" $%6!5BB=5:77#::=5!1%   ",
" $%6!!55!!5!!!!!!!!1%   ",
" $%681!81!81!81!81!1%   ",
" $%61(51(51(51(51(51%   ",
" $%25555555555555551%   ",
" $%3!!!!!!!!!!!!!!!1%   ",
" $%,$$$$$$$$$$$$$$$C%   ",
" $&%%%%%%%%%%CCCCCCCC   ",
" 4$$$$$$$$$$)))))))))   ",
"                        "};